<svg width="108" height="171" viewBox="0 0 108 171" fill="none" xmlns="http://www.w3.org/2000/svg">
<rect x="24.1006" y="10.5" width="59.7994" height="59.8001" rx="9.5" fill="#111111" fill-opacity="0.9"/>
<rect x="24.1006" y="10.5" width="59.7994" height="59.8001" rx="9.5" stroke="#12A038"/>
<g filter="url(#filter1_d_806_29125)">
<g clip-path="url(#clip0_806_29125)">
<g filter="url(#filter2_d_806_29125)">
<g clip-path="url(#clip1_806_29125)">
<mask id="mask0_806_29125" style="mask-type:alpha" maskUnits="userSpaceOnUse" x="33" y="20" width="42" height="41">
<rect x="33.6006" y="20.0005" width="40.7993" height="40.7993" fill="#D9D9D9"/>
</mask>
<g mask="url(#mask0_806_29125)">
<path d="M44.6506 53.9998C42.0723 53.9998 39.8695 53.1073 38.042 51.3224C36.2145 49.5374 35.3008 47.3558 35.3008 44.7775C35.3008 42.5675 35.9666 40.5984 37.2982 38.8701C38.6299 37.1418 40.3724 36.0368 42.5257 35.5551C43.234 32.9485 44.6506 30.8377 46.7756 29.2228C48.9005 27.6078 51.3088 26.8003 54.0005 26.8003C57.3154 26.8003 60.1274 27.9549 62.4366 30.264C64.7457 32.5731 65.9002 35.3851 65.9002 38.7001C67.8552 38.9267 69.4773 39.7696 70.7664 41.2288C72.0556 42.6879 72.7001 44.395 72.7001 46.3499C72.7001 48.4749 71.9564 50.2811 70.4689 51.7686C68.9814 53.2561 67.1752 53.9998 65.0503 53.9998H44.6506Z" fill="#12A038"/>
</g>
</g>
</g>
</g>
</g>
<path d="M54 161.133C52.5272 161.133 51.3333 162.327 51.3333 163.8C51.3333 165.273 52.5272 166.467 54 166.467C55.4728 166.467 56.6667 165.273 56.6667 163.8C56.6667 162.327 55.4728 161.133 54 161.133ZM53.5 70.8L53.5 163.8L54.5 163.8L54.5 70.8L53.5 70.8Z" fill="#12A038"/>
<defs>
<filter id="filter1_d_806_29125" x="0.00117874" y="5.60025" width="107.999" height="107.999" filterUnits="userSpaceOnUse" color-interpolation-filters="sRGB">
<feFlood flood-opacity="0" result="BackgroundImageFix"/>
<feColorMatrix in="SourceAlpha" type="matrix" values="0 0 0 0 0 0 0 0 0 0 0 0 0 0 0 0 0 0 127 0" result="hardAlpha"/>
<feMorphology radius="4.79992" operator="erode" in="SourceAlpha" result="effect1_dropShadow_806_29125"/>
<feOffset dy="19.1997"/>
<feGaussianBlur stdDeviation="19.1997"/>
<feComposite in2="hardAlpha" operator="out"/>
<feColorMatrix type="matrix" values="0 0 0 0 0.0392157 0 0 0 0 0.0941176 0 0 0 0 0.223529 0 0 0 0.1 0"/>
<feBlend mode="normal" in2="BackgroundImageFix" result="effect1_dropShadow_806_29125"/>
<feBlend mode="normal" in="SourceGraphic" in2="effect1_dropShadow_806_29125" result="shape"/>
</filter>
<filter id="filter2_d_806_29125" x="28.8007" y="17.6005" width="50.3996" height="50.3991" filterUnits="userSpaceOnUse" color-interpolation-filters="sRGB">
<feFlood flood-opacity="0" result="BackgroundImageFix"/>
<feColorMatrix in="SourceAlpha" type="matrix" values="0 0 0 0 0 0 0 0 0 0 0 0 0 0 0 0 0 0 127 0" result="hardAlpha"/>
<feOffset dy="2.39996"/>
<feGaussianBlur stdDeviation="2.39996"/>
<feComposite in2="hardAlpha" operator="out"/>
<feColorMatrix type="matrix" values="0 0 0 0 0.0392157 0 0 0 0 0.0941176 0 0 0 0 0.223529 0 0 0 0.16 0"/>
<feBlend mode="normal" in2="BackgroundImageFix" result="effect1_dropShadow_806_29125"/>
<feBlend mode="normal" in="SourceGraphic" in2="effect1_dropShadow_806_29125" result="shape"/>
</filter>
<clipPath id="clip0_806_29125">
<rect x="33.6006" y="20" width="40.7994" height="40.8" rx="11.9998" fill="white"/>
</clipPath>
<clipPath id="clip1_806_29125">
<rect x="33.6006" y="20.0005" width="40.7994" height="40.7993" rx="5.99989" fill="white"/>
</clipPath>
</defs>
</svg>
