<svg width="38" height="28" viewBox="0 0 38 28" fill="none" xmlns="http://www.w3.org/2000/svg">
<path d="M7.33402 9.24279L7.6283 9.17696L7.70738 8.88596C8.38716 6.38435 9.7413 4.36793 11.7773 2.82054C13.8145 1.27229 16.1163 0.5 18.6997 0.5C21.8843 0.5 24.5684 1.60346 26.7822 3.81724C28.996 6.03102 30.0995 8.71521 30.0995 11.8998V12.3452L30.5419 12.3965C32.3758 12.6091 33.8844 13.3939 35.0909 14.7595C36.299 16.1269 36.8993 17.7161 36.8993 19.5497C36.8993 21.5435 36.2072 23.2221 34.8146 24.6148C33.4219 26.0074 31.7433 26.6995 29.7495 26.6995H9.34984C6.90076 26.6995 4.82366 25.8572 3.09057 24.1644C1.36043 22.4745 0.5 20.4222 0.5 17.9772C0.5 15.8761 1.13021 14.0146 2.39354 12.375C3.65296 10.7404 5.29338 9.69925 7.33402 9.24279Z" fill="white" stroke="black"/>
</svg>
