<svg width="109" height="162" viewBox="0 0 109 162" fill="none" xmlns="http://www.w3.org/2000/svg">
<path d="M54.3999 156.133C52.9271 156.133 51.7332 157.327 51.7332 158.8C51.7332 160.273 52.9271 161.467 54.3999 161.467C55.8727 161.467 57.0666 160.273 57.0666 158.8C57.0666 157.327 55.8727 156.133 54.3999 156.133ZM53.8999 65.8L53.8999 158.8L54.8999 158.8L54.8999 65.8L53.8999 65.8Z" fill="#D29418"/>
<g filter="url(#filter0_b_248_14077)">
<rect x="24" y="5" width="60.7994" height="60.8001" rx="10" fill="#1E1E1E" fill-opacity="0.9"/>
<rect x="24.5" y="5.5" width="59.7994" height="59.8001" rx="9.5" stroke="#D29418"/>
<g filter="url(#filter1_d_248_14077)">
<g clip-path="url(#clip0_248_14077)">
<g filter="url(#filter2_d_248_14077)">
<g clip-path="url(#clip1_248_14077)">
<mask id="mask0_248_14077" style="mask-type:alpha" maskUnits="userSpaceOnUse" x="34" y="15" width="41" height="41">
<rect x="34" y="15.0006" width="40.7993" height="40.7993" fill="#D9D9D9"/>
</mask>
<g mask="url(#mask0_248_14077)">
<path d="M43.0342 31.0432L43.3285 30.9774L43.4076 30.6864C44.0874 28.1848 45.4415 26.1683 47.4775 24.621C49.5147 23.0727 51.8165 22.3004 54.3999 22.3004C57.5844 22.3004 60.2686 23.4039 62.4824 25.6177C64.6962 27.8314 65.7997 30.5156 65.7997 33.7002V34.1456L66.2421 34.1969C68.076 34.4095 69.5846 35.1943 70.7911 36.56C71.9992 37.9273 72.5995 39.5165 72.5995 41.3501C72.5995 43.3439 71.9074 45.0225 70.5148 46.4152C69.1221 47.8078 67.4435 48.4999 65.4497 48.4999H45.05C42.601 48.4999 40.5239 47.6576 38.7908 45.9648C37.0606 44.2749 36.2002 42.2227 36.2002 39.7776C36.2002 37.6765 36.8304 35.815 38.0937 34.1754C39.3532 32.5408 40.9936 31.4997 43.0342 31.0432Z" fill="#D29418" stroke="#D29418"/>
</g>
</g>
</g>
</g>
</g>
</g>
<defs>
<filter id="filter0_b_248_14077" x="22" y="3" width="64.7993" height="64.8" filterUnits="userSpaceOnUse" color-interpolation-filters="sRGB">
<feFlood flood-opacity="0" result="BackgroundImageFix"/>
<feGaussianBlur in="BackgroundImageFix" stdDeviation="1"/>
<feComposite in2="SourceAlpha" operator="in" result="effect1_backgroundBlur_248_14077"/>
<feBlend mode="normal" in="SourceGraphic" in2="effect1_backgroundBlur_248_14077" result="shape"/>
</filter>
<filter id="filter1_d_248_14077" x="0.400593" y="0.600254" width="107.998" height="107.999" filterUnits="userSpaceOnUse" color-interpolation-filters="sRGB">
<feFlood flood-opacity="0" result="BackgroundImageFix"/>
<feColorMatrix in="SourceAlpha" type="matrix" values="0 0 0 0 0 0 0 0 0 0 0 0 0 0 0 0 0 0 127 0" result="hardAlpha"/>
<feMorphology radius="4.79992" operator="erode" in="SourceAlpha" result="effect1_dropShadow_248_14077"/>
<feOffset dy="19.1997"/>
<feGaussianBlur stdDeviation="19.1997"/>
<feComposite in2="hardAlpha" operator="out"/>
<feColorMatrix type="matrix" values="0 0 0 0 0.0392157 0 0 0 0 0.0941176 0 0 0 0 0.223529 0 0 0 0.1 0"/>
<feBlend mode="normal" in2="BackgroundImageFix" result="effect1_dropShadow_248_14077"/>
<feBlend mode="normal" in="SourceGraphic" in2="effect1_dropShadow_248_14077" result="shape"/>
</filter>
<filter id="filter2_d_248_14077" x="29.2001" y="12.6007" width="50.3991" height="50.3991" filterUnits="userSpaceOnUse" color-interpolation-filters="sRGB">
<feFlood flood-opacity="0" result="BackgroundImageFix"/>
<feColorMatrix in="SourceAlpha" type="matrix" values="0 0 0 0 0 0 0 0 0 0 0 0 0 0 0 0 0 0 127 0" result="hardAlpha"/>
<feOffset dy="2.39996"/>
<feGaussianBlur stdDeviation="2.39996"/>
<feComposite in2="hardAlpha" operator="out"/>
<feColorMatrix type="matrix" values="0 0 0 0 0.0392157 0 0 0 0 0.0941176 0 0 0 0 0.223529 0 0 0 0.16 0"/>
<feBlend mode="normal" in2="BackgroundImageFix" result="effect1_dropShadow_248_14077"/>
<feBlend mode="normal" in="SourceGraphic" in2="effect1_dropShadow_248_14077" result="shape"/>
</filter>
<clipPath id="clip0_248_14077">
<rect x="34" y="15" width="40.7994" height="40.8" rx="11.9998" fill="white"/>
</clipPath>
<clipPath id="clip1_248_14077">
<rect x="34" y="15.0006" width="40.7994" height="40.7993" rx="5.99989" fill="white"/>
</clipPath>
</defs>
</svg>
