<svg width="20" height="16" viewBox="0 0 20 16" fill="none" xmlns="http://www.w3.org/2000/svg">
<path d="M8.60375 11.3463C8.95892 11.7013 9.41633 11.8698 9.976 11.852C10.5355 11.834 10.9461 11.6321 11.2078 11.2463L16.6345 3.38475L8.75375 8.79225C8.36158 9.05392 8.14975 9.45617 8.11825 9.999C8.08692 10.542 8.24875 10.9911 8.60375 11.3463ZM10 0.5C10.9513 0.5 11.8427 0.624667 12.674 0.874001C13.5055 1.12333 14.3084 1.50058 15.0828 2.00575L13.673 2.91725C13.1038 2.61475 12.5138 2.38625 11.903 2.23175C11.292 2.07725 10.6577 2 10 2C7.78333 2 5.89583 2.77917 4.3375 4.3375C2.77917 5.89583 2 7.78333 2 10C2 10.7 2.09583 11.3917 2.2875 12.075C2.47917 12.7583 2.75 13.4 3.1 14H16.9C17.2833 13.3667 17.5625 12.7083 17.7375 12.025C17.9125 11.3417 18 10.6333 18 9.9C18 9.3 17.926 8.69267 17.778 8.078C17.6298 7.46317 17.4013 6.8795 17.0923 6.327L18.0038 4.91725C18.4974 5.72625 18.8677 6.53558 19.1145 7.34525C19.3612 8.15492 19.4897 8.99625 19.5 9.86925C19.5102 10.7744 19.4083 11.6298 19.1943 12.4355C18.9801 13.2413 18.6577 14.0295 18.227 14.8C18.0948 15.0167 17.9089 15.1875 17.6693 15.3125C17.4294 15.4375 17.173 15.5 16.9 15.5H3.1C2.83333 15.5 2.58175 15.4359 2.34525 15.3077C2.10875 15.1794 1.918 14.9973 1.773 14.7615C1.391 14.0948 1.08333 13.3679 0.85 12.5808C0.616667 11.7936 0.5 10.9333 0.5 10C0.5 8.69367 0.747834 7.46558 1.2435 6.31575C1.73917 5.16592 2.41575 4.15883 3.27325 3.2945C4.13092 2.43017 5.13917 1.74833 6.298 1.249C7.457 0.749667 8.691 0.5 10 0.5Z" fill="white"/>
</svg>
