<svg width="10" height="20" viewBox="0 0 10 20" fill="none" xmlns="http://www.w3.org/2000/svg">
<path d="M5.36523 19.2795C4.11657 19.2795 3.0544 18.8417 2.17873 17.966C1.30307 17.0904 0.865234 16.0282 0.865234 14.7795C0.865234 14.018 1.04182 13.3123 1.39498 12.6623C1.74832 12.0123 2.2384 11.4745 2.86523 11.0488V2.77954C2.86523 2.08087 3.10723 1.48954 3.59123 1.00554C4.07523 0.52154 4.66657 0.279541 5.36523 0.279541C6.0639 0.279541 6.65523 0.52154 7.13924 1.00554C7.62324 1.48954 7.86523 2.08087 7.86523 2.77954V11.0488C8.49207 11.4745 8.98215 12.0123 9.33548 12.6623C9.68865 13.3123 9.86523 14.018 9.86523 14.7795C9.86523 16.0282 9.4274 17.0904 8.55173 17.966C7.67607 18.8417 6.6139 19.2795 5.36523 19.2795ZM4.36523 8.97179H6.36523V7.72179H5.36523V6.83729H6.36523V4.72179H5.36523V3.83729H6.36523V2.77954C6.36523 2.49621 6.2694 2.25871 6.07773 2.06704C5.88607 1.87537 5.64857 1.77954 5.36523 1.77954C5.0819 1.77954 4.8444 1.87537 4.65273 2.06704C4.46107 2.25871 4.36523 2.49621 4.36523 2.77954V8.97179Z" fill="white"/>
</svg>
