<svg width="20" height="17" viewBox="0 0 20 17" fill="none" xmlns="http://www.w3.org/2000/svg">
<path d="M9.5 16.6345C8.782 16.6345 8.165 16.3926 7.649 15.9087C7.133 15.4247 6.84617 14.8334 6.7885 14.1347H8.30775C8.35892 14.4244 8.49483 14.6635 8.7155 14.852C8.936 15.0405 9.1975 15.1347 9.5 15.1347C9.8475 15.1347 10.1427 15.0132 10.3855 14.7702C10.6285 14.5272 10.75 14.232 10.75 13.8845C10.75 13.5371 10.6285 13.242 10.3855 12.999C10.1427 12.756 9.8475 12.6345 9.5 12.6345H0.25V11.1347H9.5C10.2628 11.1347 10.9118 11.4023 11.447 11.9375C11.9823 12.4728 12.25 13.1218 12.25 13.8845C12.25 14.6473 11.9823 15.2964 11.447 15.8317C10.9118 16.3669 10.2628 16.6345 9.5 16.6345ZM0.25 6.86523V5.36548H13.5C13.9975 5.36548 14.4135 5.19814 14.748 4.86348C15.0827 4.52881 15.25 4.11281 15.25 3.61548C15.25 3.11798 15.0827 2.7019 14.748 2.36723C14.4135 2.03256 13.9975 1.86523 13.5 1.86523C13.041 1.86523 12.6538 2.00689 12.3385 2.29023C12.023 2.57356 11.8397 2.9319 11.7885 3.36523H10.2692C10.3269 2.51023 10.6628 1.79648 11.277 1.22398C11.891 0.651646 12.632 0.365479 13.5 0.365479C14.4128 0.365479 15.1827 0.678895 15.8095 1.30573C16.4365 1.93273 16.75 2.70265 16.75 3.61548C16.75 4.52815 16.4365 5.29798 15.8095 5.92498C15.1827 6.55181 14.4128 6.86523 13.5 6.86523H0.25ZM16.75 14.7307V13.2115C17.1833 13.1603 17.5417 12.977 17.825 12.6615C18.1083 12.3461 18.25 11.959 18.25 11.5C18.25 11.0025 18.0827 10.5865 17.748 10.252C17.4135 9.91731 16.9975 9.74998 16.5 9.74998H0.25V8.24998H16.5C17.4128 8.24998 18.1827 8.56348 18.8095 9.19048C19.4365 9.81731 19.75 10.5871 19.75 11.5C19.75 12.368 19.4638 13.109 18.8913 13.723C18.3189 14.3371 17.6052 14.6731 16.75 14.7307Z" fill="white"/>
</svg>
